<?xml version="1.0" encoding="utf-8"?>
<!-- Generator: Adobe Illustrator 19.2.1, SVG Export Plug-In . SVG Version: 6.00 Build 0)  -->
<svg version="1.1" id="Layer_1" xmlns="http://www.w3.org/2000/svg" xmlns:xlink="http://www.w3.org/1999/xlink" x="0px" y="0px"
	 viewBox="0 0 123 30" style="enable-background:new 0 0 123 30;" xml:space="preserve">
<style type="text/css">
	.st0{fill:#6B9B00;}
	.st1{clip-path:url(#SVGID_2_);}
	.st2{clip-path:url(#SVGID_4_);fill:#FFFFFF;}
	.st3{fill:#FFFFFF;}
</style>
<path class="st0" d="M123,27c0,1.7-1.3,3-3,3H3c-1.7,0-3-1.3-3-3V3c0-1.7,1.3-3,3-3h117c1.7,0,3,1.3,3,3V27z"/>
<g>
	<g>
		<defs>
			<polygon id="SVGID_1_" points="8,10 8,21 17,15.6 			"/>
		</defs>
		<clipPath id="SVGID_2_">
			<use xlink:href="#SVGID_1_"  style="overflow:visible;"/>
		</clipPath>
		<g class="st1">
			<g>
				<defs>
					<rect id="SVGID_3_" x="-558.1" y="-128.4" width="847.8" height="506.7"/>
				</defs>
				<clipPath id="SVGID_4_">
					<use xlink:href="#SVGID_3_"  style="overflow:visible;"/>
				</clipPath>
				<rect x="3.5" y="5.7" class="st2" width="18" height="19.8"/>
			</g>
		</g>
	</g>
</g>
<g>
	<path class="st3" d="M28.1,10.8H28l0,0.1l-1.5,4.4c-0.3,0.9-0.6,1.8-0.9,2.8c-0.2-0.8-0.5-1.7-0.8-2.8L23.4,11l0-0.1h-0.1h-1.2
		h-0.2l0.1,0.2l2.9,8.8l0,0.1h0.1h1.3h0.1l0-0.1l3.2-8.8l0.1-0.2h-0.2H28.1z"/>
	<g>
		<path class="st3" d="M31.3,10.8c-0.5,0-0.9,0.4-0.9,0.9c0,0.5,0.4,0.9,0.8,0.9c0.3,0,0.5-0.1,0.7-0.3c0.2-0.2,0.2-0.4,0.2-0.6
			C32.1,11.2,31.8,10.8,31.3,10.8z"/>
		<polygon class="st3" points="30.7,13.3 30.6,13.3 30.6,13.5 30.6,19.8 30.6,20 30.7,20 31.9,20 32,20 32,19.8 32,13.5 32,13.3 
			31.9,13.3 		"/>
	</g>
	<path class="st3" d="M36.1,13.2c-1.8,0-3.1,1.5-3.1,3.6c0,2,1.3,3.3,3.3,3.3c1.1,0,1.8-0.2,2.2-0.4l0.1-0.1l0-0.1l-0.2-0.8l0-0.2
		l-0.2,0.1c-0.4,0.2-0.9,0.3-1.7,0.3c-0.6,0-1.9-0.2-2-1.9h4.3h0.1l0-0.1l0-0.1c0-0.1,0-0.3,0-0.5C38.9,14.9,38.2,13.2,36.1,13.2z
		 M36,14.3c0.4,0,0.7,0.1,1,0.4c0.4,0.4,0.4,0.9,0.5,1.2h-3C34.6,15.2,35,14.3,36,14.3z"/>
	<path class="st3" d="M48,13.3h-0.1l0,0.1l-0.9,3.2c-0.1,0.5-0.3,1-0.4,1.5c-0.1-0.5-0.3-0.9-0.4-1.5l-1-3.2l0-0.1H45h-1h-0.1l0,0.1
		l-1,3.2c-0.2,0.5-0.3,1-0.4,1.4c-0.1-0.5-0.2-0.9-0.4-1.4l-0.8-3.2l0-0.1h-0.1h-1.2h-0.2l0.1,0.2l1.9,6.3l0,0.1h0.1h1H43l0-0.1l1-3
		c0.2-0.5,0.3-1,0.4-1.5c0.1,0.5,0.3,1,0.4,1.5l1,3l0,0.1H46h1h0.1l0-0.1l2-6.3l0.1-0.2h-0.2H48z"/>
</g>
<g>
	<g>
		<path class="st3" d="M53.9,10.8c-0.5,0-0.9,0.4-0.9,0.9c0,0.5,0.4,0.9,0.8,0.9c0.3,0,0.5-0.1,0.7-0.3c0.2-0.2,0.2-0.4,0.2-0.6
			C54.7,11.2,54.4,10.8,53.9,10.8z"/>
		<polygon class="st3" points="53.3,13.3 53.2,13.3 53.2,13.5 53.2,19.8 53.2,20 53.3,20 54.5,20 54.6,20 54.6,19.8 54.6,13.5 
			54.6,13.3 54.5,13.3 		"/>
	</g>
	<path class="st3" d="M60.5,13.2c-0.9,0-1.6,0.4-2,0.9l0-0.6l0-0.1h-0.1h-1h-0.2l0,0.2c0,0.5,0.1,1,0.1,1.7v4.6V20h0.1h1.2h0.2v-0.2
		V16c0-0.2,0-0.4,0.1-0.5c0.2-0.5,0.7-1.1,1.4-1.1c1.1,0,1.3,0.9,1.3,1.7v3.6V20h0.2h1.2h0.2v-0.2V16C62.9,13.3,60.9,13.2,60.5,13.2
		z"/>
</g>
<g>
	<path class="st3" d="M69.9,14.7c-1.3-0.5-1.7-0.9-1.7-1.6c0-0.6,0.5-1.2,1.5-1.2c0.7,0,1.3,0.2,1.6,0.4l0.2,0.1l0.1-0.2l0.3-0.9
		l0-0.1l-0.1-0.1c-0.3-0.2-1-0.5-2-0.5c-1.8,0-3,1-3,2.5c0,1.2,0.8,2.1,2.4,2.6c1.2,0.4,1.6,0.9,1.6,1.6c0,0.8-0.6,1.4-1.7,1.4
		c-0.7,0-1.4-0.2-2-0.6l-0.2-0.1l-0.1,0.2l-0.3,1l0,0.1l0.1,0.1c0.5,0.3,1.5,0.6,2.3,0.6c2.4,0,3.2-1.4,3.2-2.7
		C72.2,16.1,71.5,15.3,69.9,14.7z"/>
	<path class="st3" d="M81.5,13.3h-0.1l0,0.1l-0.9,3.2c-0.1,0.5-0.3,1-0.4,1.5c-0.1-0.5-0.3-0.9-0.4-1.5l-1-3.2l0-0.1h-0.1h-1h-0.1
		l0,0.1l-1,3.2c-0.1,0.5-0.3,1-0.4,1.4c-0.1-0.5-0.2-1-0.4-1.5l-0.8-3.2l0-0.1h-0.1h-1.2h-0.2l0.1,0.2l1.9,6.3l0,0.1h0.1h1h0.1
		l0-0.1l1-3c0.2-0.5,0.3-1,0.4-1.5c0.1,0.5,0.3,1,0.4,1.5l1,3l0,0.1h0.1h1h0.1l0-0.1l2-6.3l0.1-0.2h-0.2H81.5z"/>
	<path class="st3" d="M89,18.3v-2.4c0-1.8-0.9-2.7-2.6-2.7c-0.8,0-1.6,0.2-2.2,0.6l-0.1,0.1l0,0.1l0.3,0.8l0.1,0.2l0.2-0.1
		c0.4-0.3,1-0.4,1.6-0.4c0.8,0,1.3,0.4,1.3,1.3c-2.5,0-3.8,0.9-3.8,2.5c0,1,0.7,2,2.1,2c0.7,0,1.4-0.3,1.9-0.8l0.1,0.5l0,0.1h0.1h1
		h0.2l0-0.2C89,19.4,89,18.9,89,18.3z M86.2,19c-0.5,0-0.9-0.2-0.9-0.9c0-0.8,0.8-1.3,2.3-1.3c0,0,0,0,0,0v0.9c0,0.1,0,0.2-0.1,0.3
		C87.4,18.4,86.9,19,86.2,19z"/>
	<path class="st3" d="M95.2,13.3H95l0,0.1l0,0.5c-0.3-0.4-0.9-0.8-1.9-0.8c-1.5,0-3,1.2-3,3.5c0,1.8,1.2,3.2,2.8,3.2
		c0.8,0,1.4-0.3,1.9-0.8v0.3c0,1.3-0.7,2.1-1.9,2.1c-0.9,0-1.5-0.3-1.8-0.5L91,20.9L91,21.1L90.7,22l0,0.1l0.1,0.1
		c0.5,0.3,1.3,0.5,2.2,0.5c0.7,0,1.7-0.1,2.4-0.8c0.7-0.6,0.9-1.5,0.9-3v-3.7c0-0.7,0-1.2,0.1-1.7l0-0.2h-0.2H95.2z M94.8,16v1.1
		c0,0.2,0,0.4-0.1,0.6c-0.2,0.7-0.8,1.1-1.5,1.1c-1.3,0-1.7-1.1-1.7-2.1c0-1.3,0.7-2.2,1.7-2.2c0.8,0,1.3,0.6,1.5,1.1
		C94.8,15.6,94.8,15.8,94.8,16z"/>
	<path class="st3" d="M102.3,13.3h-0.1l0,0.1l0,0.5c-0.3-0.4-0.9-0.8-1.9-0.8c-1.5,0-3,1.2-3,3.5c0,1.8,1.2,3.2,2.8,3.2
		c0.8,0,1.4-0.3,1.9-0.8v0.3c0,1.3-0.7,2.1-1.9,2.1c-0.9,0-1.5-0.3-1.8-0.5l-0.2-0.1l-0.1,0.2L97.9,22l0,0.1l0.1,0.1
		c0.5,0.3,1.3,0.5,2.2,0.5c0.7,0,1.7-0.1,2.4-0.8c0.7-0.6,0.9-1.5,0.9-3v-3.7c0-0.7,0-1.2,0.1-1.7l0-0.2h-0.2H102.3z M102,16v1.1
		c0,0.2,0,0.4-0.1,0.6c-0.2,0.7-0.8,1.1-1.5,1.1c-1.3,0-1.7-1.1-1.7-2.1c0-1.3,0.7-2.2,1.7-2.2c0.8,0,1.3,0.6,1.5,1.1
		C102,15.6,102,15.8,102,16z"/>
	<path class="st3" d="M107.6,13.2c-1.8,0-3.1,1.5-3.1,3.6c0,2,1.3,3.3,3.3,3.3c1.1,0,1.8-0.2,2.2-0.4l0.1-0.1l0-0.1l-0.2-0.8l0-0.2
		l-0.2,0.1c-0.4,0.2-0.9,0.3-1.7,0.3c-0.6,0-1.9-0.2-2-1.9h4.3h0.1l0-0.1l0,0c0-0.1,0-0.3,0-0.5C110.4,14.9,109.6,13.2,107.6,13.2z
		 M107.5,14.3c0.4,0,0.7,0.1,1,0.4c0.4,0.4,0.4,0.9,0.5,1.2h-3C106,15.2,106.5,14.3,107.5,14.3z"/>
	<path class="st3" d="M114.7,13.2c-0.1,0-0.2,0-0.4,0c-0.7,0-1.3,0.4-1.7,1l0-0.7l0-0.1h-0.1h-1h-0.2l0,0.2c0,0.5,0.1,1.2,0.1,2v4.4
		V20h0.1h1.1h0.2v-0.2v-3.4c0-0.2,0-0.4,0.1-0.5c0.2-0.8,0.7-1.4,1.4-1.4c0.1,0,0.2,0,0.4,0l0.2,0v-0.2v-1.1v-0.1L114.7,13.2z"/>
</g>
</svg>
