<svg id="Layer_1" xmlns="http://www.w3.org/2000/svg" xmlns:xlink="http://www.w3.org/1999/xlink" width="123" height="30"><style>.st0{fill:#97c800;} .st1{clip-path:url(#SVGID_2_);} .st2{clip-path:url(#SVGID_4_);fill:#FFFFFF;} .st3{fill:#FFFFFF;}</style><path class="st0" d="M123 27c0 1.7-1.3 3-3 3H3c-1.7 0-3-1.3-3-3V3c0-1.7 1.3-3 3-3h117c1.7 0 3 1.3 3 3v24z"/><defs><path id="SVGID_1_" d="M8 10v11l9-5.4z"/></defs><clipPath id="SVGID_2_"><use xlink:href="#SVGID_1_" overflow="visible"/></clipPath><g class="st1"><defs><path id="SVGID_3_" d="M-558.1-128.4h847.8v506.7h-847.8z"/></defs><clipPath id="SVGID_4_"><use xlink:href="#SVGID_3_" overflow="visible"/></clipPath><path class="st2" d="M3.5 5.7h18v19.8h-18z"/></g><path class="st3" d="M28.1 10.8H28v.1l-1.5 4.4c-.3.9-.6 1.8-.9 2.8-.2-.8-.5-1.7-.8-2.8L23.4 11v-.1h-1.5l.1.2 2.9 8.8v.1h1.5v-.1l3.2-8.8.1-.2h-1.6zm3.2 0c-.5 0-.9.4-.9.9s.4.9.8.9c.3 0 .5-.1.7-.3.2-.2.2-.4.2-.6 0-.5-.3-.9-.8-.9zm-.6 2.5h-.1V20H32v-6.7h-.1zm5.4-.1c-1.8 0-3.1 1.5-3.1 3.6 0 2 1.3 3.3 3.3 3.3 1.1 0 1.8-.2 2.2-.4l.1-.1v-.1l-.2-.8v-.2l-.2.1c-.4.2-.9.3-1.7.3-.6 0-1.9-.2-2-1.9h4.4v-.7c0-1.4-.7-3.1-2.8-3.1zm-.1 1.1c.4 0 .7.1 1 .4.4.4.4.9.5 1.2h-3c.1-.7.5-1.6 1.5-1.6zm12-1h-.1v.1l-.9 3.2c-.1.5-.3 1-.4 1.5-.1-.5-.3-.9-.4-1.5l-1-3.2v-.1h-1.3v.1l-1 3.2c-.2.5-.3 1-.4 1.4-.1-.5-.2-.9-.4-1.4l-.8-3.2v-.1h-1.5l.1.2 1.9 6.3v.1H43v-.1l1-3c.2-.5.3-1 .4-1.5.1.5.3 1 .4 1.5l1 3v.1h1.3v-.1l2-6.3.1-.2H48zm5.9-2.5c-.5 0-.9.4-.9.9s.4.9.8.9c.3 0 .5-.1.7-.3.2-.2.2-.4.2-.6 0-.5-.3-.9-.8-.9zm-.6 2.5h-.1V20h1.4v-6.7h-.1zm7.2-.1c-.9 0-1.6.4-2 .9v-.7h-1.3v.2c0 .5.1 1 .1 1.7V20h1.5v-4c0-.2 0-.4.1-.5.2-.5.7-1.1 1.4-1.1 1.1 0 1.3.9 1.3 1.7V20h1.6v-4c-.3-2.7-2.3-2.8-2.7-2.8zm9.4 1.5c-1.3-.5-1.7-.9-1.7-1.6 0-.6.5-1.2 1.5-1.2.7 0 1.3.2 1.6.4l.2.1.1-.2.3-.9v-.1l-.1-.1c-.3-.2-1-.5-2-.5-1.8 0-3 1-3 2.5 0 1.2.8 2.1 2.4 2.6 1.2.4 1.6.9 1.6 1.6 0 .8-.6 1.4-1.7 1.4-.7 0-1.4-.2-2-.6l-.2-.1-.1.2-.3 1v.1l.1.1c.5.3 1.5.6 2.3.6 2.4 0 3.2-1.4 3.2-2.7.1-1.2-.6-2-2.2-2.6zm11.6-1.4h-.1v.1l-.9 3.2c-.1.5-.3 1-.4 1.5-.1-.5-.3-.9-.4-1.5l-1-3.2v-.1h-1.2v.1l-1 3.2c-.1.5-.3 1-.4 1.4-.1-.5-.2-1-.4-1.5l-.8-3.2v-.1h-1.5l.1.2 1.9 6.3v.1h1.2v-.1l1-3c.2-.5.3-1 .4-1.5.1.5.3 1 .4 1.5l1 3v.1h1.2v-.1l2-6.3.1-.2h-1.2zm7.5 5v-2.4c0-1.8-.9-2.7-2.6-2.7-.8 0-1.6.2-2.2.6l-.1.1v.1l.3.8.1.2.2-.1c.4-.3 1-.4 1.6-.4.8 0 1.3.4 1.3 1.3-2.5 0-3.8.9-3.8 2.5 0 1 .7 2 2.1 2 .7 0 1.4-.3 1.9-.8l.1.5v.1h1.3v-.2c-.2-.5-.2-1-.2-1.6zm-2.8.7c-.5 0-.9-.2-.9-.9 0-.8.8-1.3 2.3-1.3v.9c0 .1 0 .2-.1.3-.1.4-.6 1-1.3 1zm9-5.7H95v.6c-.3-.4-.9-.8-1.9-.8-1.5 0-3 1.2-3 3.5 0 1.8 1.2 3.2 2.8 3.2.8 0 1.4-.3 1.9-.8v.3c0 1.3-.7 2.1-1.9 2.1-.9 0-1.5-.3-1.8-.5H91v.2l-.3.9v.1l.1.1c.5.3 1.3.5 2.2.5.7 0 1.7-.1 2.4-.8.7-.6.9-1.5.9-3v-3.7c0-.7 0-1.2.1-1.7v-.2h-1.2zm-.4 2.7v1.1c0 .2 0 .4-.1.6-.2.7-.8 1.1-1.5 1.1-1.3 0-1.7-1.1-1.7-2.1 0-1.3.7-2.2 1.7-2.2.8 0 1.3.6 1.5 1.1.1 0 .1.2.1.4zm7.5-2.7h-.1v.6c-.3-.4-.9-.8-1.9-.8-1.5 0-3 1.2-3 3.5 0 1.8 1.2 3.2 2.8 3.2.8 0 1.4-.3 1.9-.8v.3c0 1.3-.7 2.1-1.9 2.1-.9 0-1.5-.3-1.8-.5l-.2-.1-.1.2-.1 1v.1l.1.1c.5.3 1.3.5 2.2.5.7 0 1.7-.1 2.4-.8.7-.6.9-1.5.9-3v-3.7c0-.7 0-1.2.1-1.7v-.2h-1.3zM102 16v1.1c0 .2 0 .4-.1.6-.2.7-.8 1.1-1.5 1.1-1.3 0-1.7-1.1-1.7-2.1 0-1.3.7-2.2 1.7-2.2.8 0 1.3.6 1.5 1.1.1 0 .1.2.1.4zm5.6-2.8c-1.8 0-3.1 1.5-3.1 3.6 0 2 1.3 3.3 3.3 3.3 1.1 0 1.8-.2 2.2-.4l.1-.1v-.1l-.2-.8v-.2l-.2.1c-.4.2-.9.3-1.7.3-.6 0-1.9-.2-2-1.9h4.4v-.6c0-1.5-.8-3.2-2.8-3.2zm-.1 1.1c.4 0 .7.1 1 .4.4.4.4.9.5 1.2h-3c0-.7.5-1.6 1.5-1.6zm7.2-1.1h-.4c-.7 0-1.3.4-1.7 1v-.8h-1.3v.2c0 .5.1 1.2.1 2V20h1.4v-3.6c0-.2 0-.4.1-.5.2-.8.7-1.4 1.4-1.4h.6v-1.4l-.2.1z"/></svg>
